<?xml version="1.0" encoding="UTF-8" standalone="no"?>
<!-- Created with Inkscape (http://www.inkscape.org/) -->

<svg
   xmlns:dc="http://purl.org/dc/elements/1.1/"
   xmlns:cc="http://creativecommons.org/ns#"
   xmlns:rdf="http://www.w3.org/1999/02/22-rdf-syntax-ns#"
   xmlns:svg="http://www.w3.org/2000/svg"
   xmlns="http://www.w3.org/2000/svg"
   xmlns:sodipodi="http://sodipodi.sourceforge.net/DTD/sodipodi-0.dtd"
   xmlns:inkscape="http://www.inkscape.org/namespaces/inkscape"
   width="744.09448819"
   height="1052.3622047"
   id="svg2"
   version="1.1"
   inkscape:version="0.48.2 r9819"
   sodipodi:docname="illustrations.svg">
  <defs
     id="defs4">
    <clipPath
       clipPathUnits="userSpaceOnUse"
       id="clipPath5891">
      <path
         inkscape:export-ydpi="90"
         inkscape:export-xdpi="90"
         inkscape:export-filename="/Users/tristen/dev/github/lisa/img/splash/women-food-security.png"
         sodipodi:nodetypes="cccccccccc"
         inkscape:connector-curvature="0"
         id="path5893"
         d="m 482.14286,-807.63782 -32.14286,100 45,20 45.93669,-20 49.06331,20 59.12403,-20 55.87597,15 45,-15 -32.14286,-100 z"
         style="opacity:0.1;fill:#000000;fill-opacity:1;stroke:none"
         clip-path="none" />
    </clipPath>
  </defs>
  <sodipodi:namedview
     id="base"
     pagecolor="#ffffff"
     bordercolor="#666666"
     borderopacity="1.0"
     inkscape:pageopacity="0.0"
     inkscape:pageshadow="2"
     inkscape:zoom="1.4142136"
     inkscape:cx="648.94423"
     inkscape:cy="1842.6135"
     inkscape:document-units="px"
     inkscape:current-layer="layer1"
     showgrid="false"
     inkscape:window-width="1284"
     inkscape:window-height="753"
     inkscape:window-x="0"
     inkscape:window-y="0"
     inkscape:window-maximized="0">
    <inkscape:grid
       type="xygrid"
       id="grid2985" />
  </sodipodi:namedview>
  <metadata
     id="metadata7">
    <rdf:RDF>
      <cc:Work
         rdf:about="">
        <dc:format>image/svg+xml</dc:format>
        <dc:type
           rdf:resource="http://purl.org/dc/dcmitype/StillImage" />
        <dc:title></dc:title>
      </cc:Work>
    </rdf:RDF>
  </metadata>
  <g
     inkscape:label="Layer 1"
     inkscape:groupmode="layer"
     id="layer1">
    <rect
       style="color:#000000;fill:#1276c7;fill-opacity:1;fill-rule:nonzero;stroke:none;stroke-width:2;marker:none;visibility:visible;display:inline;overflow:visible;enable-background:accumulate"
       id="rect5551"
       width="1000"
       height="360"
       x="90"
       y="-807.63782"
       rx="18.705166"
       ry="2.4937461e-05"
       inkscape:export-filename="/Users/tristen/dev/github/lisa/img/splash/women-food-security.png"
       inkscape:export-xdpi="90"
       inkscape:export-ydpi="90" />
    <rect
       style="color:#000000;fill:#000000;fill-opacity:1;fill-rule:nonzero;stroke:none;stroke-width:2;marker:none;visibility:visible;display:inline;overflow:visible;enable-background:accumulate"
       id="rect2987"
       width="300"
       height="30"
       x="300"
       y="542.36218"
       rx="18.705166"
       ry="2.4937459e-05"
       inkscape:export-filename="/Users/tristen/dev/devseed/mapbox.github.com/img/editor/l-gradient.png"
       inkscape:export-xdpi="90"
       inkscape:export-ydpi="90" />
    <path
       style="color:#000000;fill:#ee6565;fill-opacity:1;fill-rule:nonzero;stroke:none;stroke-width:2;marker:none;visibility:visible;display:inline;overflow:visible;enable-background:accumulate"
       d="M 600 -299.625 L 600 -267.625 C 600 -267.62499 607.136 -267.625 616 -267.625 C 624.864 -267.625 632 -267.62499 632 -267.625 L 632 -299.625 C 632 -299.62501 624.864 -299.625 616 -299.625 C 607.136 -299.625 600 -299.62501 600 -299.625 z M 612 -289.625 L 614 -289.625 L 614 -280.625 L 620 -280.625 L 620 -278.625 L 612 -278.625 L 612 -289.625 z "
       id="rect5543"
       inkscape:export-filename="/Users/tristen/Desktop/favicon.png"
       inkscape:export-xdpi="90"
       inkscape:export-ydpi="90" />
    <path
       inkscape:export-ydpi="90"
       inkscape:export-xdpi="90"
       inkscape:export-filename="/Users/tristen/dev/github/lisa/img/splash/women-food-security.png"
       style="fill:#aacd64;fill-opacity:1;stroke:#1276c7;stroke-width:3;stroke-miterlimit:4;stroke-opacity:1;stroke-dasharray:none"
       d="m 836.89262,-525.07844 c 0,0 5.75214,12.91948 15.08793,16.50317 9.33581,3.58367 22.25529,-2.16846 22.25529,-2.16846 0,0 -5.75212,-12.91949 -15.08792,-16.50316 -9.33581,-3.58368 -22.2553,2.16845 -22.2553,2.16845 z"
       id="path6699"
       inkscape:connector-curvature="0"
       sodipodi:nodetypes="czczc" />
    <path
       sodipodi:nodetypes="czczc"
       inkscape:connector-curvature="0"
       id="path6697"
       d="m 834.58533,-525.04523 c 0,0 -5.06809,13.20281 -1.00071,22.33828 4.06735,9.13547 17.27019,14.20355 17.27019,14.20355 0,0 5.0681,-13.20284 1.00073,-22.33829 -4.06738,-9.13547 -17.27021,-14.20354 -17.27021,-14.20354 z"
       style="fill:#aacd64;fill-opacity:1;stroke:#1276c7;stroke-width:3;stroke-miterlimit:4;stroke-opacity:1;stroke-dasharray:none"
       inkscape:export-filename="/Users/tristen/dev/github/lisa/img/splash/women-food-security.png"
       inkscape:export-xdpi="90"
       inkscape:export-ydpi="90" />
    <path
       style="fill:#d38d5f;fill-opacity:1;stroke:none"
       d="m 639.125,-707.625 -23.625,8 c 2.07752,10.65003 3.53741,21.43237 7.5,31.59375 3.86183,17.10176 7.11268,34.6492 5.59375,52.25 3.31429,30.25914 10.31428,46.08573 9.53125,65.4375 l 47.53125,-18.28125 c -3.83063,-17.60544 -9.25748,-35.02969 -9.3125,-53.21875 -0.33389,-22.42317 -0.015,-44.86 0.125,-67.28125 0.22631,-2.75619 0.53157,-5.49804 0.84375,-8.25 z"
       id="path5758"
       inkscape:export-filename="/Users/tristen/dev/github/lisa/img/splash/women-food-security.png"
       inkscape:export-xdpi="90"
       inkscape:export-ydpi="90"
       inkscape:connector-curvature="0"
       sodipodi:nodetypes="cccccccccc" />
    <path
       style="fill:#d38d5f;fill-opacity:1;stroke:none"
       d="m 540.9375,-717.625 -47.8125,16.46875 c -0.13998,13.69362 -0.63348,37.40354 0.40625,51.0625 5.84642,18.60618 2.7907,34.76797 8.84375,53.3125 5.36997,25.74558 6.15218,55.4691 8.53125,81.40625 2.20033,11.11756 2.41018,23.50969 10.75,32.21875 38.07278,28.08539 64.24346,-13.08501 43.8125,-50.5625 -9.96838,-22.93722 -19.41042,-46.4997 -22.15625,-71.5625 -4.39736,-28.10735 6.0183,-66.66355 4.90625,-95 0.17976,-4.56843 1.10141,-9.05188 2.09375,-13.53125 z"
       id="path5762"
       inkscape:export-filename="/Users/tristen/dev/github/lisa/img/splash/women-food-security.png"
       inkscape:export-xdpi="90"
       inkscape:export-ydpi="90"
       inkscape:connector-curvature="0"
       sodipodi:nodetypes="ccccccccccc" />
    <path
       style="fill:#106ab3;fill-opacity:1;stroke:none"
       clip-path="none"
       d="M 467.34375 -807.625 L 440 -722.625 L 485 -702.625 L 530.9375 -722.625 L 580 -702.625 L 639.125 -722.625 L 695 -707.625 L 740 -722.625 L 712.65625 -807.625 L 478.71875 -807.625 C 472.42157 -807.625 470.7302 -807.62499 467.34375 -807.625 z "
       id="path5828"
       inkscape:export-filename="/Users/tristen/dev/github/lisa/img/splash/women-food-security.png"
       inkscape:export-xdpi="90"
       inkscape:export-ydpi="90" />
    <path
       inkscape:connector-curvature="0"
       style="color:#000000;fill:#ffffff;fill-opacity:1;fill-rule:nonzero;stroke:none;stroke-width:2;marker:none;visibility:visible;display:inline;overflow:visible;enable-background:accumulate"
       clip-path="url(#clipPath5891)"
       d="m 514.5,-777.625 c -4.14214,0 -7.5,3.35786 -7.5,7.5 0,4.14214 3.35786,7.5 7.5,7.5 4.14214,0 7.5,-3.35786 7.5,-7.5 0,-4.14214 -3.35786,-7.5 -7.5,-7.5 z m 75,0 c -4.14214,0 -7.5,3.35786 -7.5,7.5 0,4.14214 3.35786,7.5 7.5,7.5 4.14214,0 7.5,-3.35786 7.5,-7.5 0,-4.14214 -3.35786,-7.5 -7.5,-7.5 z m 80,0 c -4.14214,0 -7.5,3.35786 -7.5,7.5 0,4.14214 3.35786,7.5 7.5,7.5 4.14214,0 7.5,-3.35786 7.5,-7.5 0,-4.14214 -3.35786,-7.5 -7.5,-7.5 z m -192,30 c -4.14214,0 -7.5,3.35786 -7.5,7.5 0,4.14214 3.35786,7.5 7.5,7.5 4.14214,0 7.5,-3.35786 7.5,-7.5 0,-4.14214 -3.35786,-7.5 -7.5,-7.5 z m 75,0 c -4.14214,0 -7.5,3.35786 -7.5,7.5 0,4.14214 3.35786,7.5 7.5,7.5 4.14214,0 7.5,-3.35786 7.5,-7.5 0,-4.14214 -3.35786,-7.5 -7.5,-7.5 z m 80,0 c -4.14214,0 -7.5,3.35786 -7.5,7.5 0,4.14214 3.35786,7.5 7.5,7.5 4.14214,0 7.5,-3.35786 7.5,-7.5 0,-4.14214 -3.35786,-7.5 -7.5,-7.5 z m 80,0 c -4.14214,0 -7.5,3.35786 -7.5,7.5 0,4.14214 3.35786,7.5 7.5,7.5 4.14214,0 7.5,-3.35786 7.5,-7.5 0,-4.14214 -3.35786,-7.5 -7.5,-7.5 z m -198,30 c -4.14214,0 -7.5,3.35786 -7.5,7.5 0,4.14214 3.35786,7.5 7.5,7.5 4.14214,0 7.5,-3.35786 7.5,-7.5 0,-4.14214 -3.35786,-7.5 -7.5,-7.5 z m 75,0 c -4.14214,0 -7.5,3.35786 -7.5,7.5 0,4.14214 3.35786,7.5 7.5,7.5 4.14214,0 7.5,-3.35786 7.5,-7.5 0,-4.14214 -3.35786,-7.5 -7.5,-7.5 z m 80,0 c -4.14214,0 -7.5,3.35786 -7.5,7.5 0,4.14214 3.35786,7.5 7.5,7.5 4.14214,0 7.5,-3.35786 7.5,-7.5 0,-4.14214 -3.35786,-7.5 -7.5,-7.5 z m 80,0 c -4.14214,0 -7.5,3.35786 -7.5,7.5 0,4.14214 3.35786,7.5 7.5,7.5 4.14214,0 7.5,-3.35786 7.5,-7.5 0,-4.14214 -3.35786,-7.5 -7.5,-7.5 z"
       id="path5571"
       inkscape:export-filename="/Users/tristen/dev/github/lisa/img/splash/women-food-security.png"
       inkscape:export-xdpi="90"
       inkscape:export-ydpi="90"
       transform="translate(-10,-15)"
       sodipodi:nodetypes="sssssssssssssssssssssssssssssssssssssssssssssssssssssss" />
    <path
       style="color:#000000;fill:#106ab3;fill-opacity:1;fill-rule:nonzero;stroke:none;stroke-width:2;marker:none;visibility:visible;display:inline;overflow:visible;enable-background:accumulate"
       d="M 584.34375,-617.625 C 526.22306,-617.08934 480,-603.32552 480,-592.625 c 0,0.34518 0.0612,0.69037 0.15625,1.03125 0.009,0.0322 0.0215,0.0616 0.0312,0.0937 L 500,-477.625 c 0,0 30,20 90,20 60,0 90,-20 90,-20 l 19.8125,-113.875 0.0312,-0.0937 c 0.095,-0.34088 0.15625,-0.68607 0.15625,-1.03125 0,-11.04569 -49.24868,-25 -110,-25 -1.89848,0 -3.78139,-0.0173 -5.65625,0 z"
       id="path6587"
       inkscape:connector-curvature="0"
       sodipodi:nodetypes="sscccscccsss"
       inkscape:export-filename="/Users/tristen/dev/github/lisa/img/splash/women-food-security.png"
       inkscape:export-xdpi="90"
       inkscape:export-ydpi="90" />
    <path
       inkscape:connector-curvature="0"
       style="color:#000000;fill:#1276c7;fill-opacity:1;fill-rule:nonzero;stroke:none;stroke-width:2;marker:none;visibility:visible;display:inline;overflow:visible;enable-background:accumulate"
       d="m 680,-582.63781 c 0,11.04569 -40.29438,20 -90,20 -49.70562,0 -89.99999,-8.95431 -89.99999,-20 0,-11.0457 40.29437,-20 89.99999,-20 49.70562,0 90,8.9543 90,20 z"
       id="path6592"
       inkscape:export-filename="/Users/tristen/dev/github/lisa/img/splash/women-food-security.png"
       inkscape:export-xdpi="90"
       inkscape:export-ydpi="90" />
    <path
       sodipodi:nodetypes="sssss"
       inkscape:export-ydpi="90"
       inkscape:export-xdpi="90"
       inkscape:export-filename="/Users/tristen/dev/github/lisa/img/splash/women-food-security.png"
       inkscape:connector-curvature="0"
       id="path6705"
       d="m 583.5,-634.63782 c -16.56854,0 -30,13.43146 -30,30 0,16.56854 13.43146,30 30,30 16.56854,0 30,-13.43146 30,-30 0,-16.56854 -13.43146,-30 -30,-30 z"
       style="color:#000000;fill:#eba855;fill-opacity:1;fill-rule:nonzero;stroke:#eba855;stroke-width:3;stroke-linecap:butt;stroke-linejoin:miter;stroke-miterlimit:4;stroke-opacity:1;stroke-dasharray:none;stroke-dashoffset:0;marker:none;visibility:visible;display:inline;overflow:visible;enable-background:accumulate" />
    <path
       style="color:#000000;fill:#eba855;fill-opacity:1;fill-rule:nonzero;stroke:#d38d5f;stroke-width:3;stroke-linecap:butt;stroke-linejoin:miter;stroke-miterlimit:4;stroke-opacity:1;stroke-dasharray:none;stroke-dashoffset:0;marker:none;visibility:visible;display:inline;overflow:visible;enable-background:accumulate"
       d="m 573.2366,-617.76392 c -7.52198,-14.76269 -25.58724,-20.63245 -40.34991,-13.11049 -14.76269,7.52198 -20.63245,25.58724 -13.11049,40.34991 7.52198,14.76269 25.58724,20.63245 40.34991,13.11049 14.76269,-7.52198 20.63245,-25.58724 13.11049,-40.34991 z"
       id="path5555"
       inkscape:connector-curvature="0"
       inkscape:export-filename="/Users/tristen/dev/github/lisa/img/splash/women-food-security.png"
       inkscape:export-xdpi="90"
       inkscape:export-ydpi="90"
       sodipodi:nodetypes="sssss" />
    <path
       sodipodi:nodetypes="sssss"
       inkscape:export-ydpi="90"
       inkscape:export-xdpi="90"
       inkscape:export-filename="/Users/tristen/dev/github/lisa/img/splash/women-food-security.png"
       inkscape:connector-curvature="0"
       id="path6636"
       d="m 518,-622.63782 c 16.56854,0 30,13.43146 30,30 0,16.56854 -13.43146,30 -30,30 -16.56854,0 -30,-13.43146 -30,-30 0,-16.56854 13.43146,-30 30,-30 z"
       style="color:#000000;fill:#eba855;fill-opacity:1;fill-rule:nonzero;stroke:#d38d5f;stroke-width:3;stroke-linecap:butt;stroke-linejoin:miter;stroke-miterlimit:4;stroke-opacity:1;stroke-dasharray:none;stroke-dashoffset:0;marker:none;visibility:visible;display:inline;overflow:visible;enable-background:accumulate" />
    <path
       transform="matrix(-0.8,0,0,0.79982488,959.8,-113.03695)"
       d="m 561,-627.13782 a 5,2.5 0 1 1 -10,0 5,2.5 0 1 1 10,0 z"
       sodipodi:ry="2.5"
       sodipodi:rx="5"
       sodipodi:cy="-627.13782"
       sodipodi:cx="556"
       id="path6638"
       style="color:#000000;fill:#d38d5f;fill-opacity:1;fill-rule:nonzero;stroke:none;stroke-width:2.00000005000000014;marker:none;visibility:visible;display:inline;overflow:visible;enable-background:accumulate"
       sodipodi:type="arc"
       inkscape:export-filename="/Users/tristen/dev/github/lisa/img/splash/women-food-security.png"
       inkscape:export-xdpi="90"
       inkscape:export-ydpi="90" />
    <path
       style="color:#000000;fill:#eba855;fill-opacity:1;fill-rule:nonzero;stroke:#d38d5f;stroke-width:3;stroke-miterlimit:4;stroke-opacity:1;stroke-dasharray:none;marker:none;visibility:visible;display:inline;overflow:visible;enable-background:accumulate;stroke-linecap:butt;stroke-linejoin:miter;stroke-dashoffset:0"
       d="m 545.5,-605.63782 c -16.56854,0 -30,13.43146 -30,30 0,16.56854 13.43146,30 30,30 16.56854,0 30,-13.43146 30,-30 0,-16.56854 -13.43146,-30 -30,-30 z"
       id="path6642"
       inkscape:connector-curvature="0"
       inkscape:export-filename="/Users/tristen/dev/github/lisa/img/splash/women-food-security.png"
       inkscape:export-xdpi="90"
       inkscape:export-ydpi="90"
       sodipodi:nodetypes="sssss" />
    <path
       style="color:#000000;fill:#eba855;fill-opacity:1;fill-rule:nonzero;stroke:#d38d5f;stroke-width:3;stroke-linecap:butt;stroke-linejoin:miter;stroke-miterlimit:4;stroke-opacity:1;stroke-dasharray:none;stroke-dashoffset:0;marker:none;visibility:visible;display:inline;overflow:visible;enable-background:accumulate"
       d="m 630.65607,-637.41421 c -16.44502,-2.01919 -31.41325,9.67525 -33.43246,26.12032 -2.01919,16.44502 9.67525,31.41325 26.12032,33.43246 16.44502,2.01919 31.41325,-9.67525 33.43246,-26.12032 2.01919,-16.44502 -9.67525,-31.41325 -26.12032,-33.43246 z"
       id="path6719"
       inkscape:connector-curvature="0"
       inkscape:export-filename="/Users/tristen/dev/github/lisa/img/splash/women-food-security.png"
       inkscape:export-xdpi="90"
       inkscape:export-ydpi="90"
       sodipodi:nodetypes="sssss" />
    <path
       transform="matrix(0.8,0,0,0.79982488,139.2,-128.03695)"
       d="m 561,-627.13782 a 5,2.5 0 1 1 -10,0 5,2.5 0 1 1 10,0 z"
       sodipodi:ry="2.5"
       sodipodi:rx="5"
       sodipodi:cy="-627.13782"
       sodipodi:cx="556"
       id="path6707"
       style="color:#000000;fill:#d38d5f;fill-opacity:1;fill-rule:nonzero;stroke:none;stroke-width:2;marker:none;visibility:visible;display:inline;overflow:visible;enable-background:accumulate"
       sodipodi:type="arc"
       inkscape:export-filename="/Users/tristen/dev/github/lisa/img/splash/women-food-security.png"
       inkscape:export-xdpi="90"
       inkscape:export-ydpi="90" />
    <path
       sodipodi:nodetypes="sssss"
       inkscape:export-ydpi="90"
       inkscape:export-xdpi="90"
       inkscape:export-filename="/Users/tristen/dev/github/lisa/img/splash/women-food-security.png"
       inkscape:connector-curvature="0"
       id="path6650"
       d="m 592.0064,-622.13782 c -16.56854,0 -30,13.43146 -30,30 0,16.56854 13.43146,30 30,30 16.56854,0 30,-13.43146 30,-30 0,-16.56854 -13.43146,-30 -30,-30 z"
       style="color:#000000;fill:#eba855;fill-opacity:1;fill-rule:nonzero;stroke:#d38d5f;stroke-width:3;stroke-linecap:butt;stroke-linejoin:miter;stroke-miterlimit:4;stroke-opacity:1;stroke-dasharray:none;stroke-dashoffset:0;marker:none;visibility:visible;display:inline;overflow:visible;enable-background:accumulate;opacity:1" />
    <path
       sodipodi:type="arc"
       style="color:#000000;fill:#d38d5f;fill-opacity:1;fill-rule:nonzero;stroke:none;stroke-width:2;marker:none;visibility:visible;display:inline;overflow:visible;enable-background:accumulate"
       id="path6709"
       sodipodi:cx="556"
       sodipodi:cy="-627.13782"
       sodipodi:rx="5"
       sodipodi:ry="2.5"
       d="m 561,-627.13782 a 5,2.5 0 1 1 -10,0 5,2.5 0 1 1 10,0 z"
       transform="matrix(0.79403692,-0.09749547,0.09747413,0.79386311,163.64519,-42.56832)"
       inkscape:export-filename="/Users/tristen/dev/github/lisa/img/splash/women-food-security.png"
       inkscape:export-xdpi="90"
       inkscape:export-ydpi="90" />
    <path
       sodipodi:nodetypes="sssss"
       inkscape:export-ydpi="90"
       inkscape:export-xdpi="90"
       inkscape:export-filename="/Users/tristen/dev/github/lisa/img/splash/women-food-security.png"
       inkscape:connector-curvature="0"
       id="path6715"
       d="m 665.65607,-616.91421 c -16.44502,-2.01919 -31.41325,9.67525 -33.43246,26.12032 -2.01919,16.44502 9.67525,31.41325 26.12032,33.43246 16.44502,2.01919 31.41325,-9.67525 33.43246,-26.12032 2.01919,-16.44502 -9.67525,-31.41325 -26.12032,-33.43246 z"
       style="color:#000000;fill:#eba855;fill-opacity:1;fill-rule:nonzero;stroke:#d38d5f;stroke-width:3;stroke-linecap:butt;stroke-linejoin:miter;stroke-miterlimit:4;stroke-opacity:1;stroke-dasharray:none;stroke-dashoffset:0;marker:none;visibility:visible;display:inline;overflow:visible;enable-background:accumulate" />
    <path
       style="color:#000000;fill:#eba855;fill-opacity:1;fill-rule:nonzero;stroke:#d38d5f;stroke-width:3;stroke-linecap:butt;stroke-linejoin:miter;stroke-miterlimit:4;stroke-opacity:1;stroke-dasharray:none;stroke-dashoffset:0;marker:none;visibility:visible;display:inline;overflow:visible;enable-background:accumulate"
       d="m 595.2698,-590.75753 c -7.52196,14.76267 -1.6522,32.82793 13.11049,40.34991 14.76267,7.52196 32.82793,1.6522 40.34991,-13.11049 7.52196,-14.76267 1.6522,-32.82793 -13.11049,-40.34991 -14.76267,-7.52196 -32.82793,-1.6522 -40.34991,13.11049 z"
       id="path6711"
       inkscape:connector-curvature="0"
       inkscape:export-filename="/Users/tristen/dev/github/lisa/img/splash/women-food-security.png"
       inkscape:export-xdpi="90"
       inkscape:export-ydpi="90"
       sodipodi:nodetypes="sssss" />
    <path
       transform="matrix(0.77623658,0.19353751,-0.19349515,0.77606667,116.56966,-228.32455)"
       d="m 561,-627.13782 a 5,2.5 0 1 1 -10,0 5,2.5 0 1 1 10,0 z"
       sodipodi:ry="2.5"
       sodipodi:rx="5"
       sodipodi:cy="-627.13782"
       sodipodi:cx="556"
       id="path6717"
       style="color:#000000;fill:#d38d5f;fill-opacity:1;fill-rule:nonzero;stroke:none;stroke-width:2.00000004000000020;marker:none;visibility:visible;display:inline;overflow:visible;enable-background:accumulate"
       sodipodi:type="arc"
       inkscape:export-filename="/Users/tristen/dev/github/lisa/img/splash/women-food-security.png"
       inkscape:export-xdpi="90"
       inkscape:export-ydpi="90" />
    <path
       sodipodi:nodetypes="sssss"
       inkscape:export-ydpi="90"
       inkscape:export-xdpi="90"
       inkscape:export-filename="/Users/tristen/dev/github/lisa/img/splash/women-food-security.png"
       inkscape:connector-curvature="0"
       id="path6656"
       d="m 583,-589.63782 c -16.56854,0 -30,13.43146 -30,30 0,16.56854 13.43146,30 30,30 16.56854,0 30,-13.43146 30,-30 0,-16.56854 -13.43146,-30 -30,-30 z"
       style="color:#000000;fill:#eba855;fill-opacity:1;fill-rule:nonzero;stroke:#d38d5f;stroke-width:3;stroke-miterlimit:4;stroke-opacity:1;stroke-dasharray:none;marker:none;visibility:visible;display:inline;overflow:visible;enable-background:accumulate;stroke-linecap:butt;stroke-linejoin:miter;stroke-dashoffset:0" />
    <path
       style="color:#000000;fill:#106ab3;fill-opacity:1;fill-rule:nonzero;stroke:none;stroke-width:2;marker:none;visibility:visible;display:inline;overflow:visible;enable-background:accumulate"
       d="m 481.71875,-592.625 18.28125,105 c 0,0 30,20 90,20 60,0 90,-20 90,-20 l 18.28125,-105 c -1.26981,0 -2.68586,0 -4.59375,0 -15.1164,14.55602 -55.82072,25 -103.6875,25 -47.88416,0 -88.58617,-10.4358 -103.6875,-25 -2.38999,0 -2.63842,0 -4.59375,0 z"
       id="path6607"
       inkscape:connector-curvature="0"
       inkscape:export-filename="/Users/tristen/dev/github/lisa/img/splash/women-food-security.png"
       inkscape:export-xdpi="90"
       inkscape:export-ydpi="90" />
    <path
       inkscape:export-ydpi="90"
       inkscape:export-xdpi="90"
       inkscape:export-filename="/Users/tristen/dev/github/lisa/img/splash/women-food-security.png"
       style="fill:#aacd64;fill-opacity:1;stroke:#1276c7;stroke-width:3;stroke-miterlimit:4;stroke-opacity:1;stroke-dasharray:none"
       d="m 650,-474.63782 c 0,0 10,10 20,10 10,0 20,-10 20,-10 0,0 -10,-10 -20,-10 -10,0 -20,10 -20,10 z"
       id="path6695"
       inkscape:connector-curvature="0"
       sodipodi:nodetypes="czczc" />
    <path
       sodipodi:nodetypes="czczc"
       inkscape:connector-curvature="0"
       id="path6701"
       d="m 693.2868,-465.58148 c 0,0 -10e-6,-14.14213 7.07107,-21.21321 7.07106,-7.07106 21.21319,-7.07106 21.21319,-7.07106 0,0 0,14.14214 -7.07105,21.21321 -7.07108,7.07106 -21.21321,7.07106 -21.21321,7.07106 z"
       style="fill:#aacd64;fill-opacity:1;stroke:#1276c7;stroke-width:3;stroke-miterlimit:4;stroke-opacity:1;stroke-dasharray:none"
       inkscape:export-filename="/Users/tristen/dev/github/lisa/img/splash/women-food-security.png"
       inkscape:export-xdpi="90"
       inkscape:export-ydpi="90" />
    <path
       inkscape:export-ydpi="90"
       inkscape:export-xdpi="90"
       inkscape:export-filename="/Users/tristen/dev/github/lisa/img/splash/women-food-security.png"
       style="fill:#aacd64;fill-opacity:1;stroke:#1276c7;stroke-width:3;stroke-miterlimit:4;stroke-opacity:1;stroke-dasharray:none"
       d="m 691.16547,-464.67335 c 0,0 -10,-10.00001 -10,-20.00002 0,-9.99999 10.00001,-20 10.00001,-20 0,0 10.00001,10.00001 10.00001,20 -10e-6,10.00001 -10.00002,20.00002 -10.00002,20.00002 z"
       id="path6703"
       inkscape:connector-curvature="0"
       sodipodi:nodetypes="czczc" />
    <path
       inkscape:export-ydpi="90"
       inkscape:export-xdpi="90"
       inkscape:export-filename="/Users/tristen/dev/github/lisa/img/splash/women-food-security.png"
       style="fill:#aacd64;fill-opacity:1;stroke:#1276c7;stroke-width:3;stroke-miterlimit:4;stroke-opacity:1;stroke-dasharray:none"
       d="m 374.57113,-483.44138 c 0,0 -12.36905,-6.85621 -15.12537,-16.46886 -2.75638,-9.61261 4.09987,-21.98162 4.09987,-21.98162 0,0 12.36896,6.85626 15.12539,16.46888 2.75633,9.61263 -4.09989,21.9816 -4.09989,21.9816 z"
       id="path6725"
       inkscape:connector-curvature="0"
       sodipodi:nodetypes="czczc" />
    <path
       sodipodi:nodetypes="czczc"
       inkscape:connector-curvature="0"
       id="path6727"
       d="m 374.33694,-481.14574 c 0,0 -13.59431,3.89809 -22.34052,-0.95003 -8.74617,-4.84809 -12.64428,-18.4424 -12.64428,-18.4424 0,0 13.5943,-3.89811 22.34049,0.94999 8.74622,4.84811 12.64431,18.44244 12.64431,18.44244 z"
       style="fill:#aacd64;fill-opacity:1;stroke:#1276c7;stroke-width:3;stroke-miterlimit:4;stroke-opacity:1;stroke-dasharray:none"
       inkscape:export-filename="/Users/tristen/dev/github/lisa/img/splash/women-food-security.png"
       inkscape:export-xdpi="90"
       inkscape:export-ydpi="90" />
    <path
       sodipodi:nodetypes="czczc"
       inkscape:connector-curvature="0"
       id="path6729"
       d="m 237.55486,-658.66669 c 0,0 -8.51092,11.29444 -18.41362,12.68613 -9.90269,1.39174 -21.19712,-7.1192 -21.19712,-7.1192 0,0 8.51099,-11.29441 18.41365,-12.68617 9.9027,-1.39169 21.19709,7.11924 21.19709,7.11924 z"
       style="fill:#aacd64;fill-opacity:1;stroke:#1276c7;stroke-width:3;stroke-miterlimit:4;stroke-opacity:1;stroke-dasharray:none"
       inkscape:export-filename="/Users/tristen/dev/github/lisa/img/splash/women-food-security.png"
       inkscape:export-xdpi="90"
       inkscape:export-ydpi="90" />
    <path
       inkscape:export-ydpi="90"
       inkscape:export-xdpi="90"
       inkscape:export-filename="/Users/tristen/dev/github/lisa/img/splash/women-food-security.png"
       style="fill:#aacd64;fill-opacity:1;stroke:#1276c7;stroke-width:3;stroke-miterlimit:4;stroke-opacity:1;stroke-dasharray:none"
       d="m 239.7956,-658.1153 c 0,0 1.96818,14.00453 -4.05001,21.9909 -6.01814,7.98631 -20.02267,9.95454 -20.02267,9.95454 0,0 -1.96819,-14.00453 4.04995,-21.99086 6.01817,-7.98637 20.02273,-9.95458 20.02273,-9.95458 z"
       id="path6731"
       inkscape:connector-curvature="0"
       sodipodi:nodetypes="czczc" />
    <path
       sodipodi:nodetypes="czczc"
       inkscape:connector-curvature="0"
       id="path6733"
       d="m 1008.1839,-502.05709 c 0,0 -13.88236,-2.69843 -19.47424,-10.9888 -5.592,-8.29042 -2.89352,-22.17267 -2.89352,-22.17267 0,0 13.88224,2.69837 19.47416,10.98878 5.592,8.29039 2.8936,22.17269 2.8936,22.17269 z"
       style="fill:#aacd64;fill-opacity:1;stroke:#1276c7;stroke-width:2;stroke-miterlimit:4;stroke-opacity:1;stroke-dasharray:none"
       inkscape:export-filename="/Users/tristen/dev/github/lisa/img/splash/women-food-security.png"
       inkscape:export-xdpi="90"
       inkscape:export-ydpi="90" />
    <path
       sodipodi:nodetypes="czczc"
       inkscape:connector-curvature="0"
       id="path6802"
       d="m 932.99465,-568.55688 c 0,0 -5.75214,-12.91948 -15.08793,-16.50317 -9.33581,-3.58367 -22.25529,2.16846 -22.25529,2.16846 0,0 5.75212,12.91949 15.08792,16.50316 9.33581,3.58368 22.2553,-2.16845 22.2553,-2.16845 z"
       style="fill:#106ab3;fill-opacity:1;stroke:#1276c7;stroke-width:3;stroke-miterlimit:4;stroke-opacity:1;stroke-dasharray:none"
       inkscape:export-filename="/Users/tristen/dev/github/lisa/img/splash/women-food-security.png"
       inkscape:export-xdpi="90"
       inkscape:export-ydpi="90" />
    <path
       inkscape:export-ydpi="90"
       inkscape:export-xdpi="90"
       inkscape:export-filename="/Users/tristen/dev/github/lisa/img/splash/women-food-security.png"
       style="fill:#106ab3;fill-opacity:1;stroke:#1276c7;stroke-width:3;stroke-miterlimit:4;stroke-opacity:1;stroke-dasharray:none"
       d="m 935.30194,-568.59009 c 0,0 5.06809,-13.20281 1.00071,-22.33828 -4.06735,-9.13547 -17.27019,-14.20355 -17.27019,-14.20355 0,0 -5.0681,13.20284 -1.00073,22.33829 4.06738,9.13547 17.27021,14.20354 17.27021,14.20354 z"
       id="path6804"
       inkscape:connector-curvature="0"
       sodipodi:nodetypes="czczc" />
    <path
       inkscape:export-ydpi="90"
       inkscape:export-xdpi="90"
       inkscape:export-filename="/Users/tristen/dev/github/lisa/img/splash/women-food-security.png"
       style="fill:#106ab3;fill-opacity:1;stroke:#1276c7;stroke-width:2;stroke-miterlimit:4;stroke-opacity:1;stroke-dasharray:none"
       d="m 789.2703,-576.46902 c 0,0 -13.92726,-2.45576 -22.11873,3.28001 -8.1916,5.73578 -10.6473,19.66303 -10.6473,19.66303 0,0 13.92721,2.4558 22.11877,-3.27999 8.19151,-5.73576 10.64726,-19.66305 10.64726,-19.66305 z"
       id="path6806"
       inkscape:connector-curvature="0"
       sodipodi:nodetypes="czczc" />
    <path
       inkscape:export-ydpi="90"
       inkscape:export-xdpi="90"
       inkscape:export-filename="/Users/tristen/dev/github/lisa/img/splash/women-food-security.png"
       style="fill:#106ab3;fill-opacity:1;stroke:#1276c7;stroke-width:3;stroke-miterlimit:4;stroke-opacity:1;stroke-dasharray:none"
       d="m 184.52004,-538.86524 c 0,0 5.75214,12.91948 15.08793,16.50317 9.33581,3.58367 22.25529,-2.16846 22.25529,-2.16846 0,0 -5.75212,-12.91949 -15.08792,-16.50316 -9.33581,-3.58368 -22.2553,2.16845 -22.2553,2.16845 z"
       id="path6808"
       inkscape:connector-curvature="0"
       sodipodi:nodetypes="czczc" />
    <path
       sodipodi:nodetypes="czczc"
       inkscape:connector-curvature="0"
       id="path6810"
       d="m 182.21275,-538.83203 c 0,0 -5.06809,13.20281 -1.00071,22.33828 4.06735,9.13547 17.27019,14.20355 17.27019,14.20355 0,0 5.0681,-13.20284 1.00073,-22.33829 -4.06738,-9.13547 -17.27021,-14.20354 -17.27021,-14.20354 z"
       style="fill:#106ab3;fill-opacity:1;stroke:#1276c7;stroke-width:3;stroke-miterlimit:4;stroke-opacity:1;stroke-dasharray:none"
       inkscape:export-filename="/Users/tristen/dev/github/lisa/img/splash/women-food-security.png"
       inkscape:export-xdpi="90"
       inkscape:export-ydpi="90" />
    <path
       sodipodi:nodetypes="czczc"
       inkscape:connector-curvature="0"
       id="path6818"
       d="m 364.2703,-616.46902 c 0,0 -13.92726,-2.45576 -22.11873,3.28001 -8.1916,5.73578 -10.6473,19.66303 -10.6473,19.66303 0,0 13.92721,2.4558 22.11877,-3.27999 8.19151,-5.73576 10.64726,-19.66305 10.64726,-19.66305 z"
       style="fill:#106ab3;fill-opacity:1;stroke:#1276c7;stroke-width:2;stroke-miterlimit:4;stroke-opacity:1;stroke-dasharray:none"
       inkscape:export-filename="/Users/tristen/dev/github/lisa/img/splash/women-food-security.png"
       inkscape:export-xdpi="90"
       inkscape:export-ydpi="90" />
    <path
       inkscape:export-ydpi="90"
       inkscape:export-xdpi="90"
       inkscape:export-filename="/Users/tristen/dev/github/lisa/img/splash/women-food-security.png"
       sodipodi:type="arc"
       style="color:#000000;fill:#d38d5f;fill-opacity:1;fill-rule:nonzero;stroke:none;stroke-width:2;marker:none;visibility:visible;display:inline;overflow:visible;enable-background:accumulate"
       id="path6939"
       sodipodi:cx="556"
       sodipodi:cy="-627.13782"
       sodipodi:rx="5"
       sodipodi:ry="2.5"
       d="m 561,-627.13782 a 5,2.5 0 1 1 -10,0 5,2.5 0 1 1 10,0 z"
       transform="matrix(-0.79403692,-0.09749547,-0.09747413,0.79386311,1005.8548,-45.06832)" />
  </g>
</svg>
